# xmcd CD database file
#
# Track frame offsets:
#	150
#	16827
#	26492
#	36519
#	48151
#	59473
#	73316
#	90653
#	110373
#	127890
#	136668
#	150653
#	169963
#	185420
#	203870
#	214767
#	227420
#	246501
#
# Disc length: 3426 seconds
#
# Revision: 0
# Processed by: cddbd v1.5PL3 Copyright (c) Steve Scherf et al.
# Submitted via: CDex 1.51
#
DISCID=f70d6012
DTITLE=Baby Jazz - Divertidas canciones en ingles para pequeños musicos
DYEAR=2002
DGENRE=Jazz
TTITLE0=ABC Medley
TTITLE1=I'm a little teapot
TTITLE2=Three blind mice
TTITLE3=Hush little baby
TTITLE4=Michael Row the boat Ashore
TTITLE5=On top of spaghetti
TTITLE6=Lavender's blue
TTITLE7=I'v been working on the railroad
TTITLE8=Pop goes the wease
TTITLE9=Itsy bitsy spider
TTITLE10=Wheels on the bus
TTITLE11=Old MacDonald
TTITLE12=Frere Jacques
TTITLE13=Down by the riverside
TTITLE14=Mary Had a Little Lamb
TTITLE15=Skip to my Lou
TTITLE16=Ten little indians
TTITLE17=Brahms lullaby
EXTD=YEAR: 2002
EXTT0=
EXTT1=
EXTT2=
EXTT3=
EXTT4=
EXTT5=
EXTT6=
EXTT7=
EXTT8=
EXTT9=
EXTT10=
EXTT11=
EXTT12=
EXTT13=
EXTT14=
EXTT15=
EXTT16=
EXTT17=
PLAYORDER=
